<?xml version="1.0" encoding="utf-8"?>
<!-- Generator: Adobe Illustrator 25.0.0, SVG Export Plug-In . SVG Version: 6.00 Build 0)  -->
<svg version="1.1" id="Calque_1" xmlns="http://www.w3.org/2000/svg" xmlns:xlink="http://www.w3.org/1999/xlink" x="0px" y="0px"
	 viewBox="0 0 140 28" enable-background="new 0 0 140 28" xml:space="preserve">
<path opacity="0.75" fill="#333333" d="M12.2,7c2.9,0,5.2,2.3,5.2,5.2c0,1.3-0.5,2.5-1.2,3.4l0.2,0.2H17l4,4L19.8,21l-4-4v-0.6
	l-0.2-0.2c-0.9,0.8-2.1,1.2-3.4,1.2c-2.9,0-5.2-2.3-5.2-5.2S9.3,7,12.2,7 M12.2,8.6c-2,0-3.6,1.6-3.6,3.6s1.6,3.6,3.6,3.6
	s3.6-1.6,3.6-3.6S14.2,8.6,12.2,8.6z"/>
<path fill="#333333" d="M40.2,7c2.9,0,5.2,2.3,5.2,5.2c0,1.3-0.5,2.5-1.2,3.4l0.2,0.2H45l4,4L47.8,21l-4-4v-0.6l-0.2-0.2
	c-0.9,0.8-2.1,1.2-3.4,1.2c-2.9,0-5.2-2.3-5.2-5.2S37.3,7,40.2,7 M40.2,8.6c-2,0-3.6,1.6-3.6,3.6s1.6,3.6,3.6,3.6s3.6-1.6,3.6-3.6
	S42.2,8.6,40.2,8.6z"/>
<path opacity="0.5" fill="#333333" d="M68.2,7c2.9,0,5.2,2.3,5.2,5.2c0,1.3-0.5,2.5-1.2,3.4l0.2,0.2H73l4,4L75.8,21l-4-4v-0.6
	l-0.2-0.2c-0.9,0.8-2.1,1.2-3.4,1.2c-2.9,0-5.2-2.3-5.2-5.2S65.3,7,68.2,7 M68.2,8.6c-2,0-3.6,1.6-3.6,3.6s1.6,3.6,3.6,3.6
	s3.6-1.6,3.6-3.6S70.2,8.6,68.2,8.6z"/>
<path fill="#333333" d="M96.2,7c2.9,0,5.2,2.3,5.2,5.2c0,1.3-0.5,2.5-1.2,3.4l0.2,0.2h0.6l4,4l-1.2,1.2l-4-4v-0.6l-0.2-0.2
	c-0.9,0.8-2.1,1.2-3.4,1.2c-2.9,0-5.2-2.3-5.2-5.2S93.3,7,96.2,7 M96.2,8.6c-2,0-3.6,1.6-3.6,3.6s1.6,3.6,3.6,3.6s3.6-1.6,3.6-3.6
	S98.2,8.6,96.2,8.6z"/>
<path fill="#333333" d="M124.2,7c2.9,0,5.2,2.3,5.2,5.2c0,1.3-0.5,2.5-1.2,3.4l0.2,0.2h0.6l4,4l-1.2,1.2l-4-4v-0.6l-0.2-0.2
	c-0.9,0.8-2.1,1.2-3.4,1.2c-2.9,0-5.2-2.3-5.2-5.2S121.3,7,124.2,7 M124.2,8.6c-2,0-3.6,1.6-3.6,3.6s1.6,3.6,3.6,3.6
	s3.6-1.6,3.6-3.6S126.2,8.6,124.2,8.6z"/>
</svg>
