<?xml version="1.0" encoding="utf-8"?>
<!-- Generator: Adobe Illustrator 25.0.0, SVG Export Plug-In . SVG Version: 6.00 Build 0)  -->
<svg version="1.1" id="Calque_1" xmlns="http://www.w3.org/2000/svg" xmlns:xlink="http://www.w3.org/1999/xlink" x="0px" y="0px"
	 viewBox="0 0 140 28" enable-background="new 0 0 140 28" xml:space="preserve">
<path fill="#333333" d="M19.4,7C20.3,7,21,7.7,21,8.6v10.9c0,0.9-0.7,1.6-1.6,1.6H8.6C7.7,21,7,20.3,7,19.4V8.6C7,7.7,7.7,7,8.6,7
	H19.4 M16.8,17.9L16,14.7l2.5-2.1l-3.2-0.3l-1.3-3l-1.3,3l-3.2,0.3l2.5,2.1l-0.7,3.2l2.8-1.7L16.8,17.9z"/>
<path fill="#333333" d="M47.4,7C48.3,7,49,7.7,49,8.6v10.9c0,0.9-0.7,1.6-1.6,1.6H36.6c-0.9,0-1.6-0.7-1.6-1.6V8.6
	C35,7.7,35.7,7,36.6,7H47.4 M44.8,17.9L44,14.7l2.5-2.1l-3.2-0.3l-1.3-3l-1.3,3l-3.2,0.3l2.5,2.1l-0.7,3.2l2.8-1.7L44.8,17.9z"/>
<path opacity="0.5" fill="#333333" d="M75.4,7C76.3,7,77,7.7,77,8.6v10.9c0,0.9-0.7,1.6-1.6,1.6H64.6c-0.9,0-1.6-0.7-1.6-1.6V8.6
	C63,7.7,63.7,7,64.6,7H75.4 M72.8,17.9L72,14.7l2.5-2.1l-3.2-0.3l-1.3-3l-1.3,3l-3.2,0.3l2.5,2.1l-0.7,3.2l2.8-1.7L72.8,17.9z"/>
<path fill="#333333" d="M103.4,7c0.9,0,1.6,0.7,1.6,1.6v10.9c0,0.9-0.7,1.6-1.6,1.6H92.6c-0.9,0-1.6-0.7-1.6-1.6V8.6
	C91,7.7,91.7,7,92.6,7H103.4 M100.8,17.9l-0.7-3.2l2.5-2.1l-3.2-0.3l-1.3-3l-1.3,3l-3.2,0.3l2.5,2.1l-0.7,3.2l2.8-1.7L100.8,17.9z"
	/>
<path fill="#333333" d="M131.4,7c0.9,0,1.6,0.7,1.6,1.6v10.9c0,0.9-0.7,1.6-1.6,1.6h-10.9c-0.9,0-1.6-0.7-1.6-1.6V8.6
	c0-0.9,0.7-1.6,1.6-1.6H131.4 M128.8,17.9l-0.7-3.2l2.5-2.1l-3.2-0.3l-1.3-3l-1.3,3l-3.2,0.3l2.5,2.1l-0.7,3.2l2.8-1.7L128.8,17.9z"
	/>
</svg>
