<?xml version="1.0" encoding="utf-8"?>
<!-- Generator: Adobe Illustrator 25.0.0, SVG Export Plug-In . SVG Version: 6.00 Build 0)  -->
<svg version="1.1" id="Calque_1" xmlns="http://www.w3.org/2000/svg" xmlns:xlink="http://www.w3.org/1999/xlink" x="0px" y="0px"
	 viewBox="0 0 140 28" enable-background="new 0 0 140 28" xml:space="preserve">
<path fill="#333333" d="M21.9,13v2h-12l5.5,5.5L14,21.9L6.1,14L14,6.1l1.4,1.4L9.9,13H21.9z"/>
<path fill="#333333" d="M49.9,13v2h-12l5.5,5.5L42,21.9L34.1,14L42,6.1l1.4,1.4L37.9,13H49.9z"/>
<path opacity="0.5" fill="#333333" d="M77.9,13v2h-12l5.5,5.5L70,21.9L62.1,14L70,6.1l1.4,1.4L65.9,13H77.9z"/>
<path fill="#333333" d="M105.9,13v2h-12l5.5,5.5L98,21.9L90.1,14L98,6.1l1.4,1.4L93.9,13H105.9z"/>
<path fill="#333333" d="M133.9,13v2h-12l5.5,5.5l-1.4,1.4l-7.9-7.9l7.9-7.9l1.4,1.4l-5.5,5.5H133.9z"/>
</svg>
