<?xml version="1.0" encoding="utf-8"?>
<!-- Generator: Adobe Illustrator 25.0.0, SVG Export Plug-In . SVG Version: 6.00 Build 0)  -->
<svg version="1.1" id="Calque_1" xmlns="http://www.w3.org/2000/svg" xmlns:xlink="http://www.w3.org/1999/xlink" x="0px" y="0px"
	 viewBox="0 0 140 28" enable-background="new 0 0 140 28" xml:space="preserve">
<path fill="#333333" d="M18.9,9.1C17.7,7.8,15.9,7,14,7c-3.9,0-7,3.1-7,7s3.1,7,7,7c3.3,0,6-2.2,6.8-5.2h-1.8
	c-0.7,2-2.7,3.5-4.9,3.5c-2.9,0-5.2-2.4-5.2-5.2s2.4-5.2,5.2-5.2c1.5,0,2.7,0.6,3.7,1.6l-2.8,2.8H21V7L18.9,9.1z"/>
<path fill="#333333" d="M46.9,9.1C45.7,7.8,43.9,7,42,7c-3.9,0-7,3.1-7,7s3.1,7,7,7c3.3,0,6-2.2,6.8-5.2h-1.8
	c-0.7,2-2.7,3.5-4.9,3.5c-2.9,0-5.2-2.4-5.2-5.2s2.4-5.2,5.2-5.2c1.5,0,2.7,0.6,3.7,1.6l-2.8,2.8H49V7L46.9,9.1z"/>
<path opacity="0.5" fill="#333333" d="M74.9,9.1C73.7,7.8,71.9,7,70,7c-3.9,0-7,3.1-7,7s3.1,7,7,7c3.3,0,6-2.2,6.8-5.2h-1.8
	c-0.7,2-2.7,3.5-4.9,3.5c-2.9,0-5.2-2.4-5.2-5.2s2.4-5.2,5.2-5.2c1.5,0,2.7,0.6,3.7,1.6l-2.8,2.8H77V7L74.9,9.1z"/>
<path fill="#333333" d="M102.9,9.1C101.7,7.8,99.9,7,98,7c-3.9,0-7,3.1-7,7s3.1,7,7,7c3.3,0,6-2.2,6.8-5.2h-1.8
	c-0.7,2-2.7,3.5-4.9,3.5c-2.9,0-5.2-2.4-5.2-5.2s2.4-5.2,5.2-5.2c1.5,0,2.7,0.6,3.7,1.6l-2.8,2.8h6.1V7L102.9,9.1z"/>
<path fill="#333333" d="M130.9,9.1c-1.3-1.3-3-2.1-4.9-2.1c-3.9,0-7,3.1-7,7s3.1,7,7,7c3.3,0,6-2.2,6.8-5.2h-1.8
	c-0.7,2-2.7,3.5-4.9,3.5c-2.9,0-5.2-2.4-5.2-5.2s2.4-5.2,5.2-5.2c1.5,0,2.7,0.6,3.7,1.6l-2.8,2.8h6.1V7L130.9,9.1z"/>
</svg>
