<?xml version="1.0" encoding="utf-8"?>
<!-- Generator: Adobe Illustrator 25.0.0, SVG Export Plug-In . SVG Version: 6.00 Build 0)  -->
<svg version="1.1" id="Calque_1" xmlns="http://www.w3.org/2000/svg" xmlns:xlink="http://www.w3.org/1999/xlink" x="0px" y="0px"
	 viewBox="0 0 140 28" enable-background="new 0 0 140 28" xml:space="preserve">
<path opacity="0.5" fill="#333333" enable-background="new    " d="M75.4,7.8h-2.7L71.9,7H68l-0.8,0.8h-2.7v2h10.9 M65.4,19.4
	c0,0.9,0.6,1.6,1.5,1.6h6.2c0.9,0,1.6-0.7,1.6-1.6v-8.6h-9.3V19.4L65.4,19.4z"/>
<path fill="#333333" d="M103.4,7.8h-2.7L99.9,7H96l-0.8,0.8h-2.7v2h10.9 M93.4,19.4c0,0.9,0.6,1.6,1.5,1.6h6.2
	c0.9,0,1.6-0.7,1.6-1.6v-8.6h-9.3V19.4L93.4,19.4z"/>
<path fill="#333333" d="M131.4,7.8h-2.7L127.9,7H124l-0.8,0.8h-2.7v2h10.9 M121.4,19.4c0,0.9,0.6,1.6,1.5,1.6h6.2
	c0.9,0,1.6-0.7,1.6-1.6v-8.6h-9.3V19.4L121.4,19.4z"/>
<path fill="#333333" d="M47.4,7.8h-2.7L43.9,7H40l-0.8,0.8h-2.7v2h10.9 M37.4,19.4c0,0.9,0.6,1.6,1.5,1.6h6.2c0.9,0,1.6-0.7,1.6-1.6
	v-8.6h-9.3V19.4L37.4,19.4z"/>
<path fill="#333333" d="M19.4,7.8h-2.7L15.9,7H12l-0.8,0.8H8.6v2h10.8 M9.3,19.4c0,0.9,0.7,1.6,1.6,1.6h6.2c0.9,0,1.6-0.7,1.6-1.6
	v-8.6H9.3V19.4z"/>
</svg>
