<?xml version="1.0" encoding="utf-8"?>
<!-- Generator: Adobe Illustrator 25.0.0, SVG Export Plug-In . SVG Version: 6.00 Build 0)  -->
<svg version="1.1" id="Calque_1" xmlns="http://www.w3.org/2000/svg" xmlns:xlink="http://www.w3.org/1999/xlink" x="0px" y="0px"
	 viewBox="0 0 140 28" enable-background="new 0 0 140 28" xml:space="preserve">
<path fill="#333333" d="M6.1,15v-2h12l-5.5-5.5L14,6.1l7.9,7.9L14,21.9l-1.4-1.4l5.5-5.5H6.1z"/>
<path fill="#333333" d="M34.1,15v-2h12l-5.5-5.5L42,6.1l7.9,7.9L42,21.9l-1.4-1.4l5.5-5.5H34.1z"/>
<path opacity="0.5" fill="#333333" d="M62.1,15v-2h12l-5.5-5.5L70,6.1l7.9,7.9L70,21.9l-1.4-1.4l5.5-5.5H62.1z"/>
<path fill="#333333" d="M90.1,15v-2h12l-5.5-5.5L98,6.1l7.9,7.9L98,21.9l-1.4-1.4l5.5-5.5H90.1z"/>
<path fill="#333333" d="M118.1,15v-2h12l-5.5-5.5l1.4-1.4l7.9,7.9l-7.9,7.9l-1.4-1.4l5.5-5.5H118.1z"/>
</svg>
