<?xml version="1.0" encoding="utf-8"?>
<!-- Generator: Adobe Illustrator 25.0.0, SVG Export Plug-In . SVG Version: 6.00 Build 0)  -->
<svg version="1.1" id="Calque_1" xmlns="http://www.w3.org/2000/svg" xmlns:xlink="http://www.w3.org/1999/xlink" x="0px" y="0px"
	 viewBox="0 0 14 14" enable-background="new 0 0 14 14" xml:space="preserve">
<g>
	<path fill="#333333" d="M7,2.7l1,2.6l0.2,0.6l0.6,0.1l2.8,0.3l-2.1,2L9.1,8.5L9.2,9l0.6,2.8l-2.3-1.5L7,10.1l-0.5,0.3l-2.3,1.5
		L4.8,9l0.1-0.6L4.5,8.1l-2.1-2l2.8-0.3l0.6-0.1L6,5.3L7,2.7 M7,0L5,4.9L0,5.3l3.8,3.5L2.7,14L7,11.3l4.3,2.7l-1.1-5.2L14,5.3L9,4.9
		L7,0L7,0z"/>
</g>
</svg>
