<?xml version="1.0" encoding="utf-8"?>
<!-- Generator: Adobe Illustrator 25.0.0, SVG Export Plug-In . SVG Version: 6.00 Build 0)  -->
<svg version="1.1" id="Calque_1" xmlns="http://www.w3.org/2000/svg" xmlns:xlink="http://www.w3.org/1999/xlink" x="0px" y="0px"
	 viewBox="0 0 140 28" enable-background="new 0 0 140 28" xml:space="preserve">
<path opacity="0.5" fill="#333333" d="M70,17.5c1,0,1.8,0.8,1.8,1.8S71,21,70,21s-1.8-0.8-1.8-1.8S69,17.5,70,17.5 M70,12.2
	c1,0,1.8,0.8,1.8,1.8S71,15.8,70,15.8S68.2,15,68.2,14S69,12.2,70,12.2 M70,7c1,0,1.8,0.8,1.8,1.8S71,10.5,70,10.5s-1.8-0.8-1.8-1.8
	S69,7,70,7z"/>
<path fill="#333333" d="M42,17.5c1,0,1.8,0.8,1.8,1.8S43,21,42,21s-1.8-0.8-1.8-1.8S41,17.5,42,17.5 M42,12.2c1,0,1.8,0.8,1.8,1.8
	S43,15.8,42,15.8S40.2,15,40.2,14S41,12.2,42,12.2 M42,7c1,0,1.8,0.8,1.8,1.8S43,10.5,42,10.5s-1.8-0.8-1.8-1.8S41,7,42,7z"/>
<path fill="#333333" d="M14,17.5c1,0,1.8,0.8,1.8,1.8S15,21,14,21s-1.8-0.8-1.8-1.8S13,17.5,14,17.5 M14,12.2c1,0,1.8,0.8,1.8,1.8
	S15,15.8,14,15.8S12.2,15,12.2,14S13,12.2,14,12.2 M14,7c1,0,1.8,0.8,1.8,1.8S15,10.5,14,10.5s-1.8-0.8-1.8-1.8S13,7,14,7z"/>
<path fill="#333333" d="M98,17.5c1,0,1.8,0.8,1.8,1.8S99,21,98,21s-1.8-0.8-1.8-1.8S97,17.5,98,17.5 M98,12.2c1,0,1.8,0.8,1.8,1.8
	S99,15.8,98,15.8S96.2,15,96.2,14S97,12.2,98,12.2 M98,7c1,0,1.8,0.8,1.8,1.8S99,10.5,98,10.5s-1.8-0.8-1.8-1.8S97,7,98,7z"/>
<path fill="#333333" d="M126,17.5c1,0,1.8,0.8,1.8,1.8S127,21,126,21s-1.8-0.8-1.8-1.8S125,17.5,126,17.5 M126,12.2
	c1,0,1.8,0.8,1.8,1.8s-0.8,1.8-1.8,1.8s-1.8-0.8-1.8-1.8S125,12.2,126,12.2 M126,7c1,0,1.8,0.8,1.8,1.8s-0.8,1.8-1.8,1.8
	s-1.8-0.8-1.8-1.8S125,7,126,7z"/>
</svg>
