<?xml version="1.0" encoding="utf-8"?>
<!-- Generator: Adobe Illustrator 25.0.0, SVG Export Plug-In . SVG Version: 6.00 Build 0)  -->
<svg version="1.1" id="Calque_1" xmlns="http://www.w3.org/2000/svg" xmlns:xlink="http://www.w3.org/1999/xlink" x="0px" y="0px"
	 viewBox="0 0 140 28" enable-background="new 0 0 140 28" xml:space="preserve">
<path opacity="0.5" fill="#333333" d="M76,9.2L74.8,8L70,12.8L65.2,8L64,9.2l4.8,4.8L64,18.8l1.2,1.2l4.8-4.8l4.8,4.8l1.2-1.2
	L71.2,14L76,9.2z"/>
<path fill="#333333" d="M48,9.2L46.8,8L42,12.8L37.2,8L36,9.2l4.8,4.8L36,18.8l1.2,1.2l4.8-4.8l4.8,4.8l1.2-1.2L43.2,14L48,9.2z"/>
<path opacity="8.000000e-02" fill="#333333" d="M20,9.2L18.8,8L14,12.8L9.2,8L8,9.2l4.8,4.8L8,18.8L9.2,20l4.8-4.8l4.8,4.8l1.2-1.2
	L15.2,14L20,9.2z"/>
<path fill="#333333" d="M104,9.2L102.8,8L98,12.8L93.2,8L92,9.2l4.8,4.8L92,18.8l1.2,1.2l4.8-4.8l4.8,4.8l1.2-1.2L99.2,14L104,9.2z"
	/>
<path fill="#333333" d="M132,9.2L130.8,8l-4.8,4.8L121.2,8L120,9.2l4.8,4.8l-4.8,4.8l1.2,1.2l4.8-4.8l4.8,4.8l1.2-1.2l-4.8-4.8
	L132,9.2z"/>
</svg>
