<?xml version="1.0" encoding="utf-8"?>
<!-- Generator: Adobe Illustrator 25.0.0, SVG Export Plug-In . SVG Version: 6.00 Build 0)  -->
<svg version="1.1" id="Calque_1" xmlns="http://www.w3.org/2000/svg" xmlns:xlink="http://www.w3.org/1999/xlink" x="0px" y="0px"
	 viewBox="0 0 16 16" enable-background="new 0 0 16 16" xml:space="preserve">
<path fill="#333333" d="M9.5,5H8.4v3.8l3.3,1.9l0.5-0.9L9.5,8.2V5 M9.1,1.1C5.4,1.1,2.3,4.2,2.3,8H0l3,3.1L6.1,8H3.8
	c0-2.9,2.4-5.3,5.3-5.3s5.3,2.4,5.3,5.3s-2.4,5.3-5.3,5.3c-1.5,0-2.8-0.6-3.8-1.6l-1.1,1.1c1.2,1.2,2.9,2,4.8,2
	c3.8,0,6.9-3.1,6.9-6.9S12.9,1.1,9.1,1.1"/>
</svg>
