<?xml version="1.0" encoding="utf-8"?>
<!-- Generator: Adobe Illustrator 25.0.0, SVG Export Plug-In . SVG Version: 6.00 Build 0)  -->
<svg version="1.1" id="Calque_1" xmlns="http://www.w3.org/2000/svg" xmlns:xlink="http://www.w3.org/1999/xlink" x="0px" y="0px"
	 viewBox="0 0 36 864" enable-background="new 0 0 36 864" xml:space="preserve">
<path fill="none" stroke="#065FD4" stroke-width="2" stroke-linecap="round" stroke-miterlimit="10" d="M18,3c1.3,0,2.6,0.2,3.9,0.5
	s2.5,0.9,3.6,1.5s2.1,1.4,3.1,2.3c0.9,0.9,1.8,2,2.4,3.1s1.1,2.3,1.5,3.6c0.3,1.3,0.5,2.6,0.5,3.9"/>
<path fill="none" stroke="#065FD4" stroke-width="2" stroke-linecap="round" stroke-miterlimit="10" d="M21.9,39.5
	c1.3,0.3,2.5,0.9,3.6,1.5s2.1,1.4,3.1,2.3c0.9,0.9,1.8,2,2.4,3.1s1.1,2.3,1.5,3.6c0.3,1.3,0.5,2.6,0.5,3.9c0,1.3-0.2,2.6-0.5,3.9"/>
<path fill="none" stroke="#065FD4" stroke-width="2" stroke-linecap="round" stroke-miterlimit="10" d="M25.5,77
	c1.1,0.6,2.1,1.4,3.1,2.3c0.9,0.9,1.8,2,2.4,3.1s1.1,2.3,1.5,3.6c0.3,1.3,0.5,2.6,0.5,3.9s-0.2,2.6-0.5,3.9s-0.9,2.5-1.5,3.6"/>
<path fill="none" stroke="#065FD4" stroke-width="2" stroke-linecap="round" stroke-miterlimit="10" d="M28.6,115.3
	c0.9,0.9,1.8,2,2.4,3.1s1.1,2.3,1.5,3.6c0.3,1.3,0.5,2.6,0.5,3.9s-0.2,2.6-0.5,3.9s-0.9,2.5-1.5,3.6c-0.7,1.1-1.5,2.2-2.4,3.1"/>
<path fill="none" stroke="#065FD4" stroke-width="2" stroke-linecap="round" stroke-miterlimit="10" d="M31,154.5
	c0.6,1.1,1.1,2.3,1.5,3.6c0.3,1.3,0.5,2.6,0.5,3.9c0,1.3-0.2,2.6-0.5,3.9c-0.3,1.3-0.9,2.5-1.5,3.6c-0.7,1.1-1.5,2.2-2.4,3.1
	c-0.9,0.9-2,1.7-3.1,2.4"/>
<path fill="none" stroke="#065FD4" stroke-width="2" stroke-linecap="round" stroke-miterlimit="10" d="M32.5,194.1
	c0.3,1.3,0.5,2.6,0.5,3.9c0,1.3-0.2,2.6-0.5,3.9c-0.3,1.3-0.9,2.5-1.5,3.6c-0.7,1.1-1.5,2.2-2.4,3.1c-0.9,0.9-2,1.7-3.1,2.4
	c-1.1,0.6-2.3,1.2-3.6,1.5"/>
<path fill="none" stroke="#065FD4" stroke-width="2" stroke-linecap="round" stroke-miterlimit="10" d="M33,234
	c0,1.3-0.2,2.6-0.5,3.9c-0.3,1.3-0.9,2.5-1.5,3.6c-0.7,1.1-1.5,2.2-2.4,3.1c-0.9,0.9-2,1.7-3.1,2.4c-1.1,0.6-2.3,1.2-3.6,1.5
	c-1.2,0.3-2.5,0.5-3.9,0.5"/>
<path fill="none" stroke="#065FD4" stroke-width="2" stroke-linecap="round" stroke-miterlimit="10" d="M32.5,273.9
	c-0.3,1.3-0.9,2.5-1.5,3.6c-0.7,1.1-1.5,2.2-2.4,3.1s-2,1.7-3.1,2.4c-1.1,0.6-2.3,1.2-3.6,1.5c-1.2,0.3-2.5,0.5-3.9,0.5
	s-2.6-0.2-3.9-0.5"/>
<path fill="none" stroke="#065FD4" stroke-width="2" stroke-linecap="round" stroke-miterlimit="10" d="M31,313.5
	c-0.7,1.1-1.5,2.2-2.4,3.1s-2,1.7-3.1,2.4c-1.1,0.6-2.3,1.2-3.6,1.5c-1.2,0.3-2.5,0.5-3.9,0.5s-2.6-0.2-3.9-0.5s-2.5-0.9-3.6-1.5"/>
<path fill="none" stroke="#065FD4" stroke-width="2" stroke-linecap="round" stroke-miterlimit="10" d="M28.6,352.6
	c-0.9,0.9-2,1.7-3.1,2.4c-1.1,0.6-2.3,1.2-3.6,1.5c-1.2,0.3-2.5,0.5-3.9,0.5s-2.6-0.2-3.9-0.5s-2.5-0.9-3.6-1.5
	c-1.1-0.7-2.2-1.5-3.1-2.4"/>
<path fill="none" stroke="#065FD4" stroke-width="2" stroke-linecap="round" stroke-miterlimit="10" d="M25.5,391
	c-1.1,0.6-2.3,1.2-3.6,1.5c-1.2,0.3-2.5,0.5-3.9,0.5s-2.6-0.2-3.9-0.5s-2.5-0.9-3.6-1.5c-1.1-0.7-2.2-1.5-3.1-2.4s-1.7-2-2.4-3.1"/>
<path fill="none" stroke="#065FD4" stroke-width="2" stroke-linecap="round" stroke-miterlimit="10" d="M21.9,428.5
	c-1.2,0.3-2.5,0.5-3.9,0.5s-2.6-0.2-3.9-0.5s-2.5-0.9-3.6-1.5c-1.1-0.7-2.2-1.5-3.1-2.4s-1.7-2-2.4-3.1c-0.6-1.1-1.2-2.3-1.5-3.6"/>
<path fill="none" stroke="#065FD4" stroke-width="2" stroke-linecap="round" stroke-miterlimit="10" d="M18,465
	c-1.3,0-2.6-0.2-3.9-0.5s-2.5-0.9-3.6-1.5c-1.1-0.7-2.2-1.5-3.1-2.4s-1.7-2-2.4-3.1c-0.6-1.1-1.2-2.3-1.5-3.6
	C3.2,452.6,3,451.3,3,450"/>
<path fill="none" stroke="#065FD4" stroke-width="2" stroke-linecap="round" stroke-miterlimit="10" d="M14.1,500.5
	c-1.3-0.3-2.5-0.9-3.6-1.5c-1.1-0.7-2.2-1.5-3.1-2.4s-1.7-2-2.4-3.1c-0.6-1.1-1.2-2.3-1.5-3.6C3.2,488.6,3,487.3,3,486
	s0.2-2.6,0.5-3.9"/>
<path fill="none" stroke="#065FD4" stroke-width="2" stroke-linecap="round" stroke-miterlimit="10" d="M10.5,535
	c-1.1-0.7-2.2-1.5-3.1-2.4s-1.7-2-2.4-3.1c-0.6-1.1-1.2-2.3-1.5-3.6C3.2,524.6,3,523.3,3,522s0.2-2.6,0.5-3.9
	c0.3-1.3,0.9-2.5,1.5-3.6"/>
<path fill="none" stroke="#065FD4" stroke-width="2" stroke-linecap="round" stroke-miterlimit="10" d="M7.4,568.6
	c-0.9-0.9-1.7-2-2.4-3.1c-0.6-1.1-1.2-2.3-1.5-3.6C3.2,560.6,3,559.3,3,558s0.2-2.6,0.5-3.9c0.3-1.3,0.9-2.5,1.5-3.6
	c0.7-1.1,1.5-2.2,2.4-3.1"/>
<path fill="none" stroke="#065FD4" stroke-width="2" stroke-linecap="round" stroke-miterlimit="10" d="M5,601.5
	c-0.6-1.1-1.2-2.3-1.5-3.6C3.2,596.6,3,595.3,3,594s0.2-2.6,0.5-3.9c0.3-1.3,0.9-2.5,1.5-3.6c0.7-1.1,1.5-2.2,2.4-3.1
	c0.9-0.9,2-1.7,3.1-2.4"/>
<path fill="none" stroke="#065FD4" stroke-width="2" stroke-linecap="round" stroke-miterlimit="10" d="M3.5,633.9
	C3.2,632.6,3,631.3,3,630s0.2-2.6,0.5-3.9c0.3-1.3,0.9-2.5,1.5-3.6c0.7-1.1,1.5-2.2,2.4-3.1c0.9-0.9,2-1.7,3.1-2.4
	c1.1-0.6,2.3-1.1,3.6-1.5"/>
<path fill="none" stroke="#065FD4" stroke-width="2" stroke-linecap="round" stroke-miterlimit="10" d="M3,666
	c0-1.3,0.2-2.6,0.5-3.9c0.3-1.3,0.9-2.5,1.5-3.6c0.7-1.1,1.5-2.2,2.4-3.1c0.9-0.9,2-1.7,3.1-2.4c1.1-0.6,2.3-1.1,3.6-1.5
	c1.3-0.3,2.6-0.5,3.9-0.5"/>
<path fill="none" stroke="#065FD4" stroke-width="2" stroke-linecap="round" stroke-miterlimit="10" d="M21.9,687.5
	c-1.2-0.3-2.5-0.5-3.9-0.5s-2.7,0.2-3.9,0.5c-1.3,0.3-2.4,0.8-3.6,1.5c-1.1,0.7-2.2,1.5-3.1,2.4s-1.7,2-2.4,3.1
	c-0.6,1.1-1.2,2.3-1.5,3.6"/>
<path fill="none" stroke="#065FD4" stroke-width="2" stroke-linecap="round" stroke-miterlimit="10" d="M5,730.5
	c0.7-1.1,1.5-2.2,2.4-3.1c0.9-0.9,2-1.7,3.1-2.4c1.1-0.6,2.3-1.1,3.6-1.5c1.3-0.3,2.6-0.5,3.9-0.5s2.6,0.2,3.9,0.5s2.5,0.9,3.6,1.5"
	/>
<path fill="none" stroke="#065FD4" stroke-width="2" stroke-linecap="round" stroke-miterlimit="10" d="M7.4,763.4
	c0.9-0.9,2-1.7,3.1-2.4c1.1-0.6,2.3-1.1,3.6-1.5c1.3-0.3,2.6-0.5,3.9-0.5s2.6,0.2,3.9,0.5s2.5,0.9,3.6,1.5s2.1,1.4,3.1,2.3"/>
<path fill="none" stroke="#065FD4" stroke-width="2" stroke-linecap="round" stroke-miterlimit="10" d="M10.5,797
	c1.1-0.6,2.3-1.1,3.6-1.5s2.6-0.5,3.9-0.5s2.6,0.2,3.9,0.5s2.5,0.9,3.6,1.5s2.1,1.4,3.1,2.3c0.9,0.9,1.8,2,2.4,3.1"/>
<path fill="none" stroke="#065FD4" stroke-width="2" stroke-linecap="round" stroke-miterlimit="10" d="M14.1,831.5
	c1.3-0.3,2.6-0.5,3.9-0.5s2.6,0.2,3.9,0.5s2.5,0.9,3.6,1.5s2.1,1.4,3.1,2.3c0.9,0.9,1.8,2,2.4,3.1s1.1,2.3,1.5,3.6"/>
<rect fill="none" width="36" height="864"/>
</svg>
