<?xml version="1.0" encoding="utf-8"?>
<!-- Generator: Adobe Illustrator 25.0.0, SVG Export Plug-In . SVG Version: 6.00 Build 0)  -->
<svg version="1.1" id="Calque_1" xmlns="http://www.w3.org/2000/svg" xmlns:xlink="http://www.w3.org/1999/xlink" x="0px" y="0px"
	 viewBox="0 0 14 14" enable-background="new 0 0 14 14" xml:space="preserve">
<path fill="#333333" d="M7,10.7c0.8,0,1.4-0.6,1.4-1.3C8.4,8.6,7.8,8,7,8C6.2,8,5.6,8.6,5.6,9.3C5.6,10.1,6.2,10.7,7,10.7 M11.1,4.7
	c0.8,0,1.4,0.6,1.4,1.3v6.7c0,0.7-0.6,1.3-1.4,1.3H2.9c-0.8,0-1.4-0.6-1.4-1.3V6c0-0.7,0.6-1.3,1.4-1.3h0.7V3.3C3.6,1.5,5.1,0,7,0
	s3.4,1.5,3.4,3.3v1.3H11.1 M7,1.3c-1.1,0-2.1,0.9-2.1,2v1.3h4.1V3.3C9.1,2.2,8.1,1.3,7,1.3z"/>
</svg>
